<?xml version="1.0" encoding="UTF-8" standalone="no"?>
<!-- Created with Inkscape (http://www.inkscape.org/) -->

<svg
   xmlns:dc="http://purl.org/dc/elements/1.1/"
   xmlns:cc="http://creativecommons.org/ns#"
   xmlns:rdf="http://www.w3.org/1999/02/22-rdf-syntax-ns#"
   xmlns:svg="http://www.w3.org/2000/svg"
   xmlns="http://www.w3.org/2000/svg"
   xmlns:sodipodi="http://sodipodi.sourceforge.net/DTD/sodipodi-0.dtd"
   xmlns:inkscape="http://www.inkscape.org/namespaces/inkscape"
   version="1.1"
   id="svg3713"
   xml:space="preserve"
   width="113.33333"
   height="177.33333"
   viewBox="0 0 113.33333 177.33333"
   sodipodi:docname="silverware-1667990.svg"
   inkscape:version="0.92.3 (2405546, 2018-03-11)"><metadata
     id="metadata3719"><rdf:RDF><cc:Work
         rdf:about=""><dc:format>image/svg+xml</dc:format><dc:type
           rdf:resource="http://purl.org/dc/dcmitype/StillImage" /><dc:title /></cc:Work></rdf:RDF></metadata><defs
     id="defs3717"><inkscape:perspective
       sodipodi:type="inkscape:persp3d"
       inkscape:vp_x="0 : 88.666665 : 1"
       inkscape:vp_y="0 : 1000 : 0"
       inkscape:vp_z="113.33333 : 88.666665 : 1"
       inkscape:persp3d-origin="56.666665 : 59.11111 : 1"
       id="perspective4547" /><clipPath
       clipPathUnits="userSpaceOnUse"
       id="clipPath3729"><path
         d="M 0,133 H 85 V 0 H 0 Z"
         id="path3727"
         inkscape:connector-curvature="0" /></clipPath></defs><sodipodi:namedview
     pagecolor="#ffffff"
     bordercolor="#666666"
     borderopacity="1"
     objecttolerance="10"
     gridtolerance="10"
     guidetolerance="10"
     inkscape:pageopacity="0"
     inkscape:pageshadow="2"
     inkscape:window-width="958"
     inkscape:window-height="1008"
     id="namedview3715"
     showgrid="false"
     inkscape:zoom="4.781955"
     inkscape:cx="57.143519"
     inkscape:cy="73.034889"
     inkscape:window-x="-7"
     inkscape:window-y="0"
     inkscape:window-maximized="0"
     inkscape:current-layer="g3721" /><g
     id="g3721"
     inkscape:groupmode="layer"
     inkscape:label="silverware-1667990"
     transform="matrix(1.3333333,0,0,-1.3333333,0,177.33333)"><ellipse
       id="path3922"
       cx="43.601414"
       cy="-75.910385"
       transform="scale(1,-1)"
       rx="40.307789"
       ry="43.601418"
       style="stroke-width:0.76972026;fill:#ffffff;fill-opacity:1" /><g
       id="g3731"
       transform="matrix(0.59303175,0,0,0.44174708,22.690377,83.462318)"
       style="fill:#45818e;fill-opacity:1"><path
         d="m 1.4115566,5.6462264 c 0,0 -0.367,9.2419996 -0.65499999,12.1459996 -0.301,3.027 -0.75,12.325 -0.75,12.325 h -0.887 v -16.241 c 0,-0.55 -0.45000001,-1 -1.00000001,-1 -0.55,0 -1,0.45 -1,1 l -0.395,16.238 -1.166,0.003 -0.396,-16.241 c 0,-0.462 0.032,-0.95 -0.902,-0.95 -0.934,0 -1.014,0.442 -1.015,0.95 0,0.507 -0.018,16.241 -0.018,16.241 l -1.27,-0.003 -0.25,-16.238 c 0,-0.55 -0.45,-1 -1,-1 -0.55,0 -0.9999996,0.45 -0.9999996,1 v 16.241 h -0.886 c 0,0 -0.467,-9.296 -0.75,-12.325 -0.329,-3.527 -0.655,-12.1459996 -0.655,-12.1459996 0,-3.639 1.862,-6.64099998 5.2129996,-7.148 L -10.200443,-62.956774 c 0,0 -0.646,-4.073 4.1139996,-4.073 4.74,0 4.115,4.073 4.115,4.073 l -1.776,61.4630004 c 3.31700001,0.53100002 5.159,3.521 5.159,7.14"
         style="fill:#45818e;fill-opacity:1;fill-rule:nonzero;stroke:none"
         id="path3733"
         inkscape:connector-curvature="0" /></g><path
       inkscape:connector-curvature="0"
       id="path3741"
       style="fill:#45818e;fill-opacity:1;fill-rule:nonzero;stroke:none;stroke-width:0.45437783"
       d="M 69.380343,54.978436 68.50744,71.99578 c 0.04222,0.09757 0.06775,0.220359 0.06775,0.379322 -1e-6,2.135473 -0.01571,6.961947 -0.01571,11.716088 2e-6,13.369626 -0.296038,13.408737 -1.269581,12.405763 -1.202328,-1.238473 -2.75813,-5.553998 -2.758131,-12.405763 10e-7,-5.984204 0.942123,-10.978471 2.195505,-12.146715 l -1.38692,-16.966037 c 0,0 -0.317155,-1.126192 2.019745,-1.126192 2.327082,0 2.020243,1.12619 2.020243,1.12619" /><ellipse
       style="fill:#5abad1;fill-opacity:1;stroke-width:0.79780233"
       id="path4541"
       cx="43.696857"
       cy="-75.122055"
       transform="scale(1,-1)"
       rx="19.380463"
       ry="20.712545" /><rect
       style="fill:#00001c;fill-opacity:0.94117647;stroke:none;stroke-width:0.60645217;stroke-opacity:1"
       id="rect4565"
       width="23.398363"
       height="29.0576"
       x="31.997675"
       y="-89.350677"
       transform="scale(1,-1)"
       ry="4.7800379"
       inkscape:transform-center-x="-0.21907733"
       inkscape:transform-center-y="-2.6289302" /><rect
       id="rect3739"
       width="16.780643"
       height="5.0430551"
       x="35.661057"
       y="-86.709076"
       transform="scale(1,-1)"
       style="fill:#586f7c;fill-opacity:1;stroke-width:0.56962335"
       ry="1.8010935" /><rect
       id="rect3741"
       width="3.7815533"
       height="4.6828341"
       x="34.833839"
       y="-79.504707"
       transform="scale(1,-1)"
       style="fill:#586f7c;fill-opacity:1;stroke-width:0.41127566"
       ry="0.98586005" /><rect
       id="rect3741-4"
       width="3.7815533"
       height="4.6828341"
       x="39.797127"
       y="-79.564751"
       style="stroke-width:0.41127566;fill:#586f7c;fill-opacity:1"
       ry="0.98586005"
       transform="scale(1,-1)" /><rect
       id="rect3741-1"
       width="3.7815533"
       height="4.4426885"
       x="44.878593"
       y="-79.204529"
       style="stroke-width:0.40059131;fill:#586f7c;fill-opacity:1"
       ry="0.93530309"
       transform="scale(1,-1)" /><rect
       id="rect3741-13"
       width="3.7815533"
       height="3.842325"
       x="34.9067"
       y="-73.036125"
       style="stroke-width:0.37254235;fill:#586f7c;fill-opacity:1"
       ry="0.80891073"
       transform="scale(1,-1)" /><rect
       id="rect3741-6"
       width="3.7815533"
       height="8.4050894"
       x="50.114658"
       y="-71.940132"
       style="stroke-width:0.55099767;fill:#586f7c;fill-opacity:1"
       ry="1.7694929"
       transform="scale(1,-1)" /><rect
       id="rect3741-13-4"
       width="3.7815533"
       height="3.842325"
       x="39.966839"
       y="-73.065468"
       style="stroke-width:0.37254232;fill:#586f7c;fill-opacity:1"
       ry="0.80891073"
       transform="scale(1,-1)" /><rect
       id="rect3741-13-6"
       width="3.7815533"
       height="3.842325"
       x="45.048298"
       y="-73.185539"
       style="stroke-width:0.37254232;fill:#586f7c;fill-opacity:1"
       ry="0.80891073"
       transform="scale(1,-1)" /><rect
       id="rect3741-13-2"
       width="3.7815533"
       height="3.842325"
       x="35.024872"
       y="-67.685219"
       style="stroke-width:0.37254232;fill:#586f7c;fill-opacity:1"
       ry="0.80891073"
       transform="scale(1,-1)" /><rect
       id="rect3741-13-2-2"
       width="3.7815533"
       height="3.842325"
       x="39.936626"
       y="-67.685219"
       style="stroke-width:0.37254232;fill:#586f7c;fill-opacity:1"
       ry="0.80891073"
       transform="scale(1,-1)" /><rect
       id="rect3741-13-2-4"
       width="3.7815533"
       height="3.842325"
       x="45.151367"
       y="-67.497437"
       style="stroke-width:0.37254232;fill:#586f7c;fill-opacity:1"
       ry="0.80891073"
       transform="scale(1,-1)" /><rect
       id="rect3741-13-6-8"
       width="3.7815533"
       height="2.7616704"
       x="49.841877"
       y="-79.024414"
       style="stroke-width:0.3158381;fill:#586f7c;fill-opacity:1"
       ry="0.58140445"
       transform="scale(1,-1)" /><rect
       id="rect3741-13-6-1"
       width="3.7815533"
       height="2.5215251"
       x="49.996487"
       y="-75.422241"
       style="stroke-width:0.30179372;fill:#586f7c;fill-opacity:1"
       ry="0.53084749"
       transform="scale(1,-1)" /></g></svg>